<svg width="109" height="109" viewBox="0 0 109 109" fill="none" xmlns="http://www.w3.org/2000/svg">
<circle cx="54.5" cy="54.5" r="41.5" fill="white"/>
<path fill-rule="evenodd" clip-rule="evenodd" d="M54.25 107.5C83.6592 107.5 107.5 83.6592 107.5 54.25C107.5 24.8408 83.6592 1 54.25 1C24.8408 1 1 24.8408 1 54.25C1 83.6592 24.8408 107.5 54.25 107.5ZM40.8585 29.8051L79.1659 48.9588C83.5268 51.1392 83.5268 57.3624 79.1659 59.5429L40.8586 78.6966C36.1378 81.057 30.5833 77.6241 30.5833 72.3461V36.1555C30.5833 30.8775 36.1378 27.4447 40.8585 29.8051Z" fill="#C6C5FD"/>
<path d="M79.1659 48.9588L79.6131 48.0644L79.1659 48.9588ZM40.8585 29.8051L40.4113 30.6995L40.8585 29.8051ZM79.1659 59.5429L79.6132 60.4373L79.1659 59.5429ZM40.8586 78.6966L40.4113 77.8021H40.4113L40.8586 78.6966ZM106.5 54.25C106.5 83.1069 83.1069 106.5 54.25 106.5V108.5C84.2114 108.5 108.5 84.2114 108.5 54.25H106.5ZM54.25 2C83.1069 2 106.5 25.3931 106.5 54.25H108.5C108.5 24.2886 84.2114 0 54.25 0V2ZM2 54.25C2 25.3931 25.3931 2 54.25 2V0C24.2886 0 0 24.2886 0 54.25H2ZM54.25 106.5C25.3931 106.5 2 83.1069 2 54.25H0C0 84.2114 24.2886 108.5 54.25 108.5V106.5ZM79.6131 48.0644L41.3058 28.9107L40.4113 30.6995L78.7187 49.8532L79.6131 48.0644ZM79.6132 60.4373C84.7111 57.8883 84.7111 50.6133 79.6131 48.0644L78.7187 49.8532C82.3425 51.6651 82.3425 56.8365 78.7187 58.6484L79.6132 60.4373ZM41.3058 79.591L79.6132 60.4373L78.7187 58.6484L40.4113 77.8021L41.3058 79.591ZM29.5833 72.3461C29.5833 78.3675 35.9201 82.2838 41.3058 79.591L40.4113 77.8021C36.3554 79.8301 31.5833 76.8808 31.5833 72.3461H29.5833ZM29.5833 36.1555V72.3461H31.5833V36.1555H29.5833ZM41.3058 28.9107C35.9201 26.2178 29.5833 30.1342 29.5833 36.1555H31.5833C31.5833 31.6209 36.3554 28.6716 40.4113 30.6995L41.3058 28.9107Z" fill="#3D36CC"/>
</svg>
