<svg width="96" height="96" viewBox="0 0 96 96" fill="none" xmlns="http://www.w3.org/2000/svg">
<rect width="96" height="96" rx="12" fill="#E0E8FF"/>
<path d="M68.9996 35.5846V55.4352C67.5281 56.5546 65.5796 56.8537 63.8381 56.251L63.2666 56.038C65.0351 52.5346 64.3781 48.2427 61.5881 45.3739L51.4766 35.1903L59.5181 32.3486L68.9996 35.5846Z" fill="#1328A0"/>
<path d="M44.6093 49.1184L55.1978 59.6057V59.6374C54.9278 60.6027 54.4193 61.482 53.6993 62.2071C52.4078 63.4761 50.6978 64.1106 49.0193 64.0199L37.7378 52.658C37.4678 52.8982 37.3463 53.2335 37.3463 53.5644C37.3463 53.9587 37.5263 54.3802 37.9178 54.6204L48.6278 65.1938C48.3263 65.9189 47.9078 66.5851 47.3363 67.1562C46.1078 68.3934 44.4878 69.0007 42.8678 69.0007C41.3063 69.0007 39.7493 68.4252 38.5478 67.2468L31.9463 61.2327C30.5063 59.9048 28.8278 58.9666 26.9648 58.3911C26.9963 58.3004 26.9963 58.2098 26.9963 58.1191V32.7393L34.7048 29.5351C36.9233 28.597 39.4163 28.7783 41.4548 29.8977L40.9778 30.147C38.3993 31.4477 36.5678 33.9222 36.0593 36.8862C35.6093 39.755 36.5678 42.719 38.6108 44.8038C40.1093 46.313 42.1208 47.2511 44.2493 47.4324C44.1008 47.6454 44.0378 47.8539 44.0378 48.0669C44.0378 48.4839 44.2178 48.8782 44.6093 49.1184Z" fill="#1328A0"/>
<path d="M60.4186 55.073C60.1801 55.558 59.8786 55.9795 59.4871 56.3738C58.3171 57.5521 56.9356 58.2183 55.4956 58.3362L44.6641 47.4591H45.0241C46.4641 47.4591 47.9041 47.0965 49.1641 46.462L50.1226 45.9499L55.2841 43.3213L59.4556 47.5226C59.4556 47.5226 59.4556 47.5226 59.4871 47.5543C61.4671 49.5711 61.8001 52.6846 60.4186 55.073Z" fill="#1328A0"/>
<path d="M21.7515 60.3889H14.25C13.008 60.3889 12 59.3737 12 58.1229V32.4394C12 31.1885 13.008 30.1733 14.25 30.1733H21.7515C22.9935 30.1733 24.0015 31.1885 24.0015 32.4394V58.1229C24.0015 59.3737 22.9935 60.3889 21.7515 60.3889Z" fill="#C66928"/>
<path d="M81.7515 60.3892H74.25C73.008 60.3892 72 59.374 72 58.1231V32.4396C72 31.1888 73.008 30.1736 74.25 30.1736H81.7515C82.9935 30.1736 84.0015 31.1888 84.0015 32.4396V58.1231C84.0015 59.374 82.9935 60.3892 81.7515 60.3892Z" fill="#C66928"/>
<path d="M65.8214 30.4771C65.7899 30.4771 65.7629 30.4454 65.6999 30.4454L58.8329 27.6083C56.7044 26.7336 54.3015 26.7925 52.2315 27.8485L44.0415 31.9863L42.3315 32.8338C40.59 33.7085 39.3615 35.4035 39.033 37.3342C38.7315 39.2694 39.3615 41.2635 40.743 42.6503C41.913 43.8287 43.4745 44.4314 45.0315 44.4314C45.963 44.4314 46.9215 44.2184 47.79 43.7652L48.78 43.2531L53.0684 41.0777L65.0069 35.0364L68.9984 36.6997V32.4395C68.9984 32.2265 68.9984 32.018 69.0569 31.8367L65.8214 30.4771Z" fill="#1328A0"/>
</svg>
