<svg width="96" height="96" viewBox="0 0 96 96" fill="none" xmlns="http://www.w3.org/2000/svg">
<rect width="96" height="96" rx="12" fill="#E0E8FF"/>
<path fill-rule="evenodd" clip-rule="evenodd" d="M72.6622 38.9965C71.7166 32.9547 66.4699 28.3174 60.1562 28.3174C57.7811 28.3174 55.4988 28.9734 53.5192 30.1971C50.5075 25.1443 45.0858 22 39.0625 22C29.7578 22 22.1875 29.5575 22.1875 38.8465C22.1875 38.904 22.1875 38.9637 22.1896 39.0212C16.2095 40.0268 11.5 45.2317 11.5 51.4813C11.5 58.4486 17.3178 64.1161 24.2969 64.1161H70.7031C77.6822 64.1161 83.5 58.4486 83.5 51.4813C83.5 45.1783 78.7142 39.9405 72.6622 38.9965ZM46.41 54.0471L36.3562 54.0324C32.4778 54.0548 29.271 51.026 29.2938 47.2612C29.2566 43.7881 31.9435 40.5048 38.0819 40.5065C38.9823 40.5065 39.7142 41.2068 39.7142 42.0684C39.712 42.9323 38.9802 43.6283 38.0822 43.6306C35.2957 43.6286 32.5209 44.2209 32.5581 47.2521C32.5444 49.3157 34.276 50.9151 36.3491 50.9061L46.4121 50.9208C48.379 50.9207 50.0087 49.511 50.2025 47.6419C50.2902 46.789 51.0912 46.1549 51.9869 46.2432C52.8849 46.3293 53.5406 47.0937 53.4507 47.9531C53.0908 51.4263 50.0668 54.0468 46.41 54.0471ZM55.2899 53.1937C55.2877 54.0576 56.0195 54.7579 56.9199 54.7578C63.1415 54.764 65.6691 51.642 65.648 48.0076C65.6708 44.2428 62.464 41.214 58.5856 41.2364L48.5317 41.2217C45.0135 41.222 41.8187 44.0104 41.4911 47.3201C41.4058 48.1795 42.0638 48.9417 42.9618 49.0234C43.8622 49.1029 44.6563 48.4709 44.7416 47.6159C44.9215 45.844 46.639 44.3459 48.532 44.3457L58.5951 44.3605C60.6612 44.3493 62.3951 45.9509 62.386 48.0056C62.4001 51.165 59.7915 51.6336 56.9265 51.6316C56.0239 51.6295 55.2898 52.3321 55.2899 53.1937Z" fill="#1328A0"/>
<path d="M81.7111 65.9377C81.7517 65.6257 81.8111 65.3196 81.8111 64.9985C81.8111 64.6774 81.7548 64.3713 81.7111 64.0593L83.5852 62.6969C84.0038 62.3938 84.1225 61.8357 83.857 61.4006L82.1734 58.5979C81.911 58.1598 81.3519 57.9797 80.8678 58.1778L78.7094 59.054C78.1846 58.6699 77.6224 58.3278 77.004 58.0788L76.7166 55.8762C76.651 55.3751 76.2075 55 75.6827 55H72.3156C71.7908 55 71.3473 55.3751 71.2817 55.8762L70.9943 58.0788C70.3758 58.3278 69.8136 58.6669 69.2889 59.054L67.1305 58.1778C66.6464 57.9827 66.0873 58.1628 65.8249 58.5979L64.1413 61.4006C63.8789 61.8387 63.9945 62.3938 64.413 62.6969L66.2872 64.0593C66.2466 64.3713 66.1872 64.6774 66.1872 64.9985C66.1872 65.3196 66.2434 65.6257 66.2872 65.9377L64.413 67.3001C63.9945 67.6032 63.8758 68.1613 64.1413 68.5964L65.8249 71.3991C66.0873 71.8372 66.6464 72.0173 67.1305 71.8192L69.2889 70.943C69.8136 71.3271 70.3758 71.6692 70.9943 71.9182L71.2817 74.1208C71.3504 74.6249 71.7908 75 72.3187 75H75.6858C76.2106 75 76.6541 74.6249 76.7197 74.1238L77.0071 71.9212C77.6255 71.6722 78.1878 71.3331 78.7125 70.946L80.8709 71.8222C81.355 72.0173 81.9141 71.8372 82.1765 71.4021L83.8601 68.5994C84.1225 68.1613 84.0069 67.6062 83.5883 67.3031L81.7111 65.9377ZM74.0023 68.9985C71.7033 68.9985 69.8386 67.2071 69.8386 64.9985C69.8386 62.7899 71.7033 60.9985 74.0023 60.9985C76.3012 60.9985 78.1659 62.7899 78.1659 64.9985C78.1659 67.2071 76.3012 68.9985 74.0023 68.9985Z" fill="#C66928"/>
</svg>
