<svg width="97" height="96" viewBox="0 0 97 96" fill="none" xmlns="http://www.w3.org/2000/svg">
<rect x="0.5" width="96" height="96" rx="12" fill="#E0E8FF"/>
<path d="M40.5303 38.4628V51.559C40.5303 52.8869 39.4535 53.9646 38.1267 53.9646C36.7999 53.9646 35.7231 52.8869 35.7231 51.559L35.7231 39.5068L24.4694 28.9894C23.9839 28.5372 23.7051 27.8973 23.7051 27.2333L23.7051 17.6108C23.7051 16.2829 24.7819 15.2052 26.1087 15.2052C27.4355 15.2052 28.5123 16.2829 28.5123 17.6108L28.5123 26.1893L39.7659 36.7067C40.2563 37.1589 40.5303 37.794 40.5303 38.4628Z" fill="#C66928"/>
<path d="M30.9175 17.2114C30.9175 20.0848 28.5816 22.4226 25.7107 22.4226C22.8397 22.4226 20.5 20.0848 20.5 17.2114C20.5 14.3381 22.8358 12.0003 25.7068 12.0003C28.5777 12.0003 30.9175 14.3381 30.9175 17.2114Z" fill="#C66928"/>
<path d="M73.9975 18.1236V28.1479C73.9975 28.8446 73.707 29.5062 73.2012 29.9774L61.477 40.934V51.8186C61.477 53.202 60.3551 54.3247 58.9729 54.3247C57.5906 54.3247 56.4688 53.202 56.4688 51.8186V39.8463C56.4688 39.1497 56.7592 38.4881 57.2651 38.0169L68.9893 27.0603V18.1236C68.9893 16.7402 70.1111 15.6175 71.4934 15.6175C72.8757 15.6175 73.9975 16.7402 73.9975 18.1236Z" fill="#C66928"/>
<path d="M76.4988 17.4289C76.4988 20.4222 74.0655 22.8577 71.0746 22.8577C68.0838 22.8577 65.6504 20.4222 65.6504 17.4289C65.6504 14.4355 68.0838 12.0001 71.0746 12.0001C74.0655 12.0001 76.4988 14.4355 76.4988 17.4289Z" fill="#C66928"/>
<path d="M54.07 17.5045C54.07 20.5396 51.6027 23.009 48.5702 23.009C45.5376 23.009 43.0703 20.5396 43.0703 17.5045C43.0703 14.4694 45.5376 12 48.5702 12C51.6027 12 54.07 14.4694 54.07 17.5045Z" fill="#C66928"/>
<path d="M50.9684 17.0823V36.8501C50.9684 38.2527 49.831 39.3911 48.4295 39.3911C47.0281 39.3911 45.8906 38.2527 45.8906 36.8501V17.0823C45.8906 15.6797 47.0281 14.5413 48.4295 14.5413C49.831 14.5413 50.9684 15.6797 50.9684 17.0823Z" fill="#C66928"/>
<path d="M66.2353 61.9947C66.3299 61.2369 66.468 60.4937 66.468 59.714C66.468 58.9344 66.3371 58.1911 66.2353 57.4333L70.5972 54.1252C71.5714 53.3893 71.8477 52.034 71.2297 50.9775L67.3113 44.1719C66.7006 43.108 65.3993 42.6708 64.2725 43.1517L59.249 45.2794C58.0277 44.3467 56.7191 43.5161 55.2797 42.9113L54.6109 37.563C54.4582 36.3461 53.4259 35.4353 52.2046 35.4353H44.3677C43.1464 35.4353 42.114 36.3461 41.9614 37.563L41.2926 42.9113C39.8531 43.5161 38.5446 44.3394 37.3232 45.2794L32.2998 43.1517C31.173 42.6781 29.8717 43.1153 29.261 44.1719L25.3425 50.9775C24.7319 52.0413 25.0009 53.3893 25.975 54.1252L30.3369 57.4333C30.2424 58.1911 30.1043 58.9344 30.1043 59.714C30.1043 60.4937 30.2351 61.2369 30.3369 61.9947L25.975 65.3028C25.0009 66.0387 24.7246 67.394 25.3425 68.4506L29.261 75.2562C29.8717 76.32 31.173 76.7572 32.2998 76.2763L37.3232 74.1486C38.5446 75.0813 39.8531 75.912 41.2926 76.5167L41.9614 81.8651C42.1213 83.0892 43.1464 84 44.375 84H52.2118C53.4332 84 54.4655 83.0892 54.6182 81.8723L55.287 76.524C56.7264 75.9193 58.035 75.0959 59.2563 74.1559L64.2798 76.2836C65.4066 76.7572 66.7079 76.32 67.3186 75.2635L71.237 68.4578C71.8477 67.394 71.5787 66.046 70.6045 65.3101L66.2353 61.9947ZM48.2934 69.427C42.9428 69.427 38.6027 65.0769 38.6027 59.714C38.6027 54.3511 42.9428 50.0011 48.2934 50.0011C53.644 50.0011 57.9841 54.3511 57.9841 59.714C57.9841 65.0769 53.644 69.427 48.2934 69.427Z" fill="#1328A0"/>
</svg>
