<svg width="97" height="96" viewBox="0 0 97 96" fill="none" xmlns="http://www.w3.org/2000/svg">
<rect x="0.5" width="96" height="96" rx="12" fill="#E0E8FF"/>
<path d="M57.7129 42.2375V32.9998C57.7129 21.4177 48.0231 12 36.1065 12C24.1898 12 14.5 21.4177 14.5 32.9998C14.5 34.6511 15.8889 36.001 17.588 36.001C19.287 36.001 20.6759 34.6511 20.6759 32.9998C20.6759 24.7204 27.5879 18.0025 36.1065 18.0025C44.1944 18.0025 50.8287 24.0635 51.4768 31.7714L20.213 44.4288C16.7268 45.8372 14.5046 49.1084 14.5046 52.7396V74.9948C14.5046 79.9443 18.6713 83.994 23.7639 83.994H48.4537C50.2129 83.994 51.8796 83.5126 53.3009 82.6756C50.4305 81.6542 47.8379 80.0658 45.7083 77.996H23.7639C22.0648 77.996 20.6759 76.6461 20.6759 74.9948V52.7351C20.6759 51.5337 21.4167 50.4538 22.588 49.9768L51.537 38.2463V44.0373C53.4537 43.1374 55.5231 42.5075 57.7129 42.2375Z" fill="#1328A0"/>
<path d="M81.0442 72.8215L69.4563 63.7953C69.873 62.5939 70.1507 61.334 70.1507 59.9976C70.1507 53.3831 64.6137 47.9971 57.8035 47.9971C55.4193 47.9971 54.5628 49.4909 54.9748 50.8903L56.6368 56.5554L54.2619 58.8637L48.4332 57.2483C46.9841 56.8433 45.4609 57.6623 45.4609 60.0021C45.4609 66.6165 50.998 72.0026 57.8081 72.0026C59.1831 72.0026 60.4794 71.7326 61.7155 71.3276L70.9563 82.5317C72.3081 84.2775 75.0072 84.552 76.7294 82.8917L81.3637 78.3875C83.0859 76.7002 82.7479 74.0679 81.0442 72.8215Z" fill="#C66928"/>
</svg>
