<svg width="96" height="96" viewBox="0 0 96 96" fill="none" xmlns="http://www.w3.org/2000/svg">
<rect width="96" height="96" rx="12" fill="#E0E8FF"/>
<path fill-rule="evenodd" clip-rule="evenodd" d="M22 39.1989C22 24.2032 33.6653 12 48 12C62.3347 12 74 24.2032 74 39.1989C74 60.5092 50.4353 82.5041 49.4343 83.4334C49.0227 83.8096 48.5113 84 48 84C47.4887 84 46.973 83.8096 46.5657 83.4334C45.5647 82.5041 22 60.5092 22 39.1989ZM57.4041 38.8546C57.3916 38.9446 57.3791 39.0347 57.3678 39.1253L59.5266 40.7637C60.0079 41.1274 60.1408 41.7936 59.8391 42.3193L57.903 45.6825C57.6012 46.2047 56.9583 46.4207 56.4015 46.1866L53.9194 45.1352C53.3159 45.5997 52.6694 46.0066 51.9581 46.3055L51.6277 48.9485C51.5522 49.5499 51.0422 50 50.4387 50H46.5665C45.9594 50 45.4529 49.5499 45.3739 48.9449L45.0434 46.3019C44.3322 46.003 43.6857 45.5925 43.0822 45.1316L40.6001 46.183C40.0433 46.4207 39.4003 46.2046 39.0986 45.6789L37.1625 42.3157C36.8572 41.7935 36.9937 41.1238 37.475 40.7601L39.6302 39.1253C39.6209 39.0555 39.611 38.986 39.6011 38.9165C39.5581 38.6133 39.5153 38.3117 39.5153 37.9982C39.5153 37.706 39.5545 37.4242 39.5939 37.1418C39.6064 37.0517 39.6189 36.9616 39.6302 36.8711L37.475 35.2363C36.9937 34.8726 36.8608 34.2065 37.1625 33.6807L39.0986 30.3175C39.4003 29.7954 40.0433 29.5793 40.6001 29.8134L43.0822 30.8648C43.6857 30.4003 44.3322 29.9934 45.0434 29.6945L45.3739 27.0515C45.4494 26.4501 45.9594 26 46.5629 26H50.4351C51.0386 26 51.5486 26.4501 51.6241 27.0515L51.9545 29.6945C52.6658 29.9934 53.3123 30.4039 53.9158 30.8648L56.3979 29.8134C56.9547 29.5757 57.5977 29.7918 57.8994 30.3175L59.8355 33.6807C60.1408 34.2029 60.0043 34.8726 59.523 35.2363L57.3678 36.8711C57.3771 36.9409 57.387 37.0104 57.3969 37.0799C57.4399 37.3831 57.4827 37.6847 57.4827 37.9982C57.4827 38.2904 57.4435 38.5722 57.4041 38.8546ZM43.7144 37.9982C43.7144 40.6485 45.8588 42.7982 48.5026 42.7982C51.1463 42.7982 53.2908 40.6485 53.2908 37.9982C53.2908 35.3479 51.1463 33.1982 48.5026 33.1982C45.8588 33.1982 43.7144 35.3479 43.7144 37.9982Z" fill="#1328A0"/>
</svg>
