<svg width="96" height="96" viewBox="0 0 96 96" fill="none" xmlns="http://www.w3.org/2000/svg">
<rect width="96" height="96" rx="12" fill="#E0E8FF"/>
<path fill-rule="evenodd" clip-rule="evenodd" d="M37.778 12C36.3669 12 35.2227 13.1245 35.2227 14.5116V17.8605C35.2227 21.0972 37.8925 23.7212 41.1854 23.7212H54.8152C58.1082 23.7212 60.778 21.0972 60.778 17.8605V14.5116C60.778 13.1245 59.6338 12 58.2222 12H37.778Z" fill="#C66928"/>
<path fill-rule="evenodd" clip-rule="evenodd" d="M25 21.2093C25 16.1231 29.1954 12 34.3707 12H61.6293C66.8046 12 71 16.1231 71 21.2093V74.7908C71 79.8767 66.8046 84 61.6293 84H34.3707C29.1954 84 25 79.8767 25 74.7908V21.2093ZM34.3707 17.0233C32.0182 17.0233 30.1112 18.8974 30.1112 21.2093V74.7908C30.1112 77.1024 32.0182 78.9766 34.3707 78.9766H61.6293C63.9818 78.9766 65.8888 77.1024 65.8888 74.7908V21.2093C65.8888 18.8974 63.9818 17.0233 61.6293 17.0233H34.3707Z" fill="#1328A0"/>
</svg>
