<svg width="97" height="96" viewBox="0 0 97 96" fill="none" xmlns="http://www.w3.org/2000/svg">
<rect x="0.5" width="96" height="96" rx="12" fill="#E0E8FF"/>
<path d="M37.941 33.4138C51.5753 33.4138 62.6281 28.844 62.6281 23.2069C62.6281 17.5698 51.5753 13 37.941 13C24.3067 13 13.2539 17.5698 13.2539 23.2069C13.2539 28.844 24.3067 33.4138 37.941 33.4138Z" fill="#1328A0"/>
<path d="M34.7744 47.9083C36.7043 43.8001 39.6012 40.252 43.1777 37.5439C41.4439 37.6926 39.6927 37.7933 37.9371 37.7933C28.3228 37.7933 18.6518 35.5576 13.25 31.2395V37.7933C13.2544 42.9864 22.6422 47.2651 34.7744 47.9083Z" fill="#1328A0"/>
<path d="M32.1297 59.6682C32.1297 57.0694 32.5131 54.5582 33.1839 52.1694C25.2424 51.5569 17.7583 49.4263 13.2539 45.8213V52.375C13.2539 57.205 21.3697 61.2388 32.2648 62.3019C32.182 61.4313 32.1297 60.5563 32.1297 59.6682Z" fill="#1328A0"/>
<path fill-rule="evenodd" clip-rule="evenodd" d="M59.9172 83C72.8039 83 83.2505 72.5085 83.2505 59.5665C83.2505 46.6246 72.8039 36.1331 59.9172 36.1331C47.0306 36.1331 36.584 46.6246 36.584 59.5665C36.584 72.5085 47.0306 83 59.9172 83ZM63.3376 45.3252L60.572 44.9901L60.013 49.7029C59.9126 49.7056 59.811 49.7097 59.7082 49.7152C58.6961 49.7693 57.7775 49.9545 56.9526 50.2709C56.1277 50.5872 55.4073 51.0094 54.7917 51.5374C54.1994 52.0394 53.748 52.6329 53.4377 53.3179C53.1508 53.9769 53.0283 54.7014 53.0701 55.4914C53.1172 56.3801 53.3552 57.1348 53.7841 57.7556C54.2378 58.375 54.809 58.8767 55.4977 59.2608C56.2111 59.6436 56.983 59.9613 57.8133 60.214C58.6437 60.4668 59.472 60.6825 60.2984 60.8611C61.0494 61.0191 61.7024 61.1946 62.2572 61.3878C62.8108 61.5563 63.2442 61.7931 63.5574 62.0982C63.8693 62.3786 64.0403 62.8027 64.0704 63.3705C64.0939 63.8148 64.0044 64.2281 63.8018 64.6103C63.624 64.9911 63.2934 65.2935 62.8101 65.5173C62.3269 65.7412 61.6532 65.8762 60.7892 65.9223C59.3821 65.9975 58.2796 65.7469 57.4817 65.1706C56.7084 64.593 56.2209 63.8021 56.0192 62.7979L52.7607 62.9719C52.7115 63.4449 52.8169 64.0334 53.077 64.7375C53.3358 65.4168 53.768 66.0993 54.3737 66.7849C55.004 67.4691 55.863 68.0298 56.9507 68.4668C57.1848 68.5557 57.4316 68.633 57.691 68.6987L57.1004 73.3977L59.866 73.7327L60.4303 68.9757C60.624 68.9726 60.822 68.9656 61.0241 68.9548C62.4805 68.877 63.7037 68.6013 64.6936 68.1275C65.7069 67.6278 66.4635 66.9561 66.9635 66.1124C67.4881 65.2675 67.7217 64.3019 67.6641 63.2157C67.6171 62.327 67.4051 61.5956 67.0281 61.0216C66.6511 60.4476 66.1683 59.9782 65.5796 59.6136C64.9909 59.2489 64.3191 58.9506 63.5641 58.7186C62.8078 58.4619 62.0275 58.2189 61.2232 57.9895C60.3708 57.7875 59.6048 57.5808 58.9252 57.3696C58.2457 57.1583 57.6999 56.9028 57.2879 56.6029C56.8746 56.2784 56.6536 55.8446 56.6249 55.3015C56.5869 54.5856 56.8408 54.0026 57.3863 53.5527C57.9319 53.1027 58.7477 52.8487 59.8339 52.7906C60.8954 52.7339 61.7108 52.938 62.28 53.4027C62.8479 53.8427 63.2451 54.5642 63.4715 55.5671L66.5819 55.401C66.4945 54.2173 66.168 53.195 65.6026 52.334C65.0605 51.447 64.2943 50.77 63.3041 50.303C63.1246 50.2159 62.9369 50.1382 62.7412 50.0699L63.3376 45.3252Z" fill="#C66928"/>
</svg>
